<?xml version="1.0" encoding="utf-8"?>
<!-- Generator: Adobe Illustrator 17.0.0, SVG Export Plug-In . SVG Version: 6.00 Build 0)  -->
<!DOCTYPE svg PUBLIC "-//W3C//DTD SVG 1.1//EN" "http://www.w3.org/Graphics/SVG/1.1/DTD/svg11.dtd">
<svg version="1.1" id="Layer_1" xmlns="http://www.w3.org/2000/svg" xmlns:xlink="http://www.w3.org/1999/xlink" x="0px" y="0px"
	 width="136.363px" height="115.059px" viewBox="327.813 249.445 136.363 115.059"
	 enable-background="new 327.813 249.445 136.363 115.059" xml:space="preserve">
<g>
	<path d="M327.813,249.445c45.454-0.002,90.907,0,136.363,0c0,38.352,0,76.707,0,115.059c-45.456,0-90.909,0.002-136.363,0
		C327.813,326.151,327.816,287.799,327.813,249.445 M340.367,352.342c37.113,0,74.224-0.014,111.335,0.009
		c0.134-4.478,0.005-8.963,0.054-13.444c-0.007-25.3-0.016-50.598,0.002-75.898c-0.032-0.249-0.077-0.494-0.14-0.734
		c-11.365,0.052-22.727,0.007-34.089,0.023c-25.717-0.005-51.431,0.007-77.148-0.005
		C340.349,292.309,340.374,322.325,340.367,352.342 M349.713,270.633c4.068-0.014,8.134,0.002,12.203-0.009
		c-0.005,21.087,0,42.171-0.002,63.256c5.301,0.002,10.601-0.002,15.902,0.002c0.002,3.355,0,6.707,0,10.06
		c-9.364,0.018-18.731,0.007-28.095,0.007C349.713,319.51,349.725,295.07,349.713,270.633 M388.17,343.958
		c-0.025-24.444,0-48.89-0.011-73.336c4.064,0.014,8.13,0,12.196,0.009c-0.007,24.439,0,48.879-0.005,73.318
		C396.291,343.958,392.229,343.94,388.17,343.958 M414.7,343.951c-0.016-24.442,0.002-48.881-0.009-73.322
		c9.219-0.002,18.441,0.002,27.663-0.002c-0.005,3.701-0.009,7.405,0.002,11.106c-5.153-0.005-10.307,0.005-15.458-0.005
		c0.005,6.404-0.014,12.805,0.007,19.209c3.704-0.009,7.407-0.009,11.111,0c-0.018,3.917-0.002,7.833-0.007,11.75
		c-3.704-0.002-7.41,0.005-11.113-0.005c0.014,6.721-0.023,13.444,0.018,20.165c5.147-0.023,10.293-0.002,15.437-0.009
		c-0.009,3.704,0.066,7.412-0.014,11.118C433.125,343.947,423.913,343.953,414.7,343.951L414.7,343.951z"/>
</g>
</svg>
